<svg width="253" height="83" viewBox="0 0 253 83" fill="none" xmlns="http://www.w3.org/2000/svg">
<g id="Core Logo">
<rect id="BG" width="83" height="83" fill="#D2232A"/>
<g id="Logo - Red Chop">
<g id="Group 49">
<g id="_&#195;&#142;&#195;&#147;&#195;&#136;_1" clip-path="url(#clip0_485_21235)">
<path id="Vector" d="M15.7003 54.8647L23.8146 50.0101C22.9463 49.0328 22.019 47.4448 22.019 45.1328C22.019 42.8209 22.9827 40.5994 24.6464 39.2104C26.1466 37.9843 27.8603 37.6088 29.6832 37.6088C30.9151 37.6088 32.9516 37.7671 35.2564 39.1561L35.9519 32.1162C33.3789 30.8901 30.9151 30.5688 28.6104 30.5688C25.1283 30.5688 21.4826 31.1027 18.1596 33.288C13.391 36.4415 12 41.2418 12 45.1328C12 47.852 12.8592 51.2136 14.732 53.7201C15.023 54.1182 15.3503 54.4983 15.7003 54.8647Z" fill="white"/>
<path id="Vector_2" d="M47.8709 54.6928V54.0413H47.98C48.0527 54.1951 48.1346 54.3399 48.2164 54.4847L52.5531 51.8922C50.1893 50.9285 48.6255 48.2501 48.6255 45.0287C48.6255 40.6537 51.3575 37.9345 54.5214 37.9345C57.0943 37.9345 60.3628 39.7488 60.3628 45.0287C60.3628 45.9019 60.2673 46.6801 60.1082 47.3769L70.0045 41.459C69.4953 38.8213 68.4134 36.4324 66.8997 34.6272C64.3813 31.6411 61.381 30.5734 58.0581 30.5734C55.6442 30.5734 51.7848 31.1615 48.7846 34.7901H48.6755V19H39.0293V59H40.6658L47.8709 54.6883V54.6928Z" fill="white"/>
</g>
<g id="Layer_1" clip-path="url(#clip1_485_21235)">
<path id="Vector_3" d="M104.202 49C98.4707 49 93 46.7027 93 41C93 34.8915 99.2403 33 104.202 33C107.454 33 110.344 33.4517 113.019 34.6233L112.415 36.6065C110.053 35.5937 107.212 35.0291 104.417 35.0291C99.429 35.0291 95.6221 36.9912 95.6221 41.0247C95.6221 45.0582 99.478 46.9744 104.39 46.9956C107.571 46.9956 110.099 46.431 112.438 45.4182L113.042 47.3802C110.608 48.4177 107.959 49.0035 104.198 49.0035L104.202 49Z" fill="#394749"/>
<path id="Vector_4" d="M134.871 48.5941L132.608 45.1463H120.006L117.716 48.5941H114.728L125.262 33.1587H127.431L137.961 48.5941H134.879H134.871ZM126.322 35.636L121.334 43.1384H131.283L126.322 35.636Z" fill="#394749"/>
<path id="Vector_5" d="M155.932 48.5941L149.401 42.1504H143.04V48.5941H140.557V33.4058H154.313C157.109 33.4058 159.471 34.8244 159.471 37.6651C159.471 40.5059 157.158 42.1045 154.339 42.1045H152.532L159.278 48.5941H155.928H155.932ZM153.785 35.4102H143.04V40.2342H154.004C155.377 40.2342 157.014 39.6484 157.014 37.711C157.014 36.1795 155.618 35.4137 153.785 35.4137V35.4102Z" fill="#394749"/>
<path id="Vector_6" d="M176.648 48.5941H162.915V33.4058H176.648C179.18 33.4058 181.806 34.3303 181.806 36.9452C181.806 38.3215 180.795 39.4014 179.372 39.786C181.47 40.1001 183.202 41.4093 183.202 43.5725C183.202 47.0414 180.044 48.5976 176.648 48.5976V48.5941ZM176.362 35.4102H165.398V39.1296H176.407C177.95 39.1296 179.274 38.4768 179.274 37.2134C179.274 35.8372 177.878 35.4102 176.358 35.4102H176.362ZM176.214 41.1129H165.398V46.5897H176.456C178.791 46.5897 180.625 45.6651 180.625 43.7066C180.625 42.1292 179.35 41.1164 176.214 41.1164V41.1129Z" fill="#394749"/>
<path id="Vector_7" d="M204.669 48.5941L202.406 45.1463H189.804L187.514 48.5941H184.526L195.056 33.1587H197.226L207.756 48.5941H204.673H204.669ZM196.116 35.636L191.129 43.1384H201.078L196.116 35.636Z" fill="#394749"/>
<path id="Vector_8" d="M230.423 48.9541H230.11L212.834 37.3264V48.5942H210.352V33.0459H210.665L227.914 44.6948V33.4058H230.419V48.9541H230.423Z" fill="#394749"/>
<path id="Vector_9" d="M234.449 48.5942V33.4059H236.931V48.5942H234.449ZM249.095 48.5942L237.795 41.0212V40.9295L249.31 33.4023H252.996L241.432 40.9753L252.996 48.5907H249.095V48.5942Z" fill="#394749"/>
</g>
</g>
</g>
</g>
<defs>
<clipPath id="clip0_485_21235">
<rect width="58" height="40" fill="white" transform="translate(12 19)"/>
</clipPath>
<clipPath id="clip1_485_21235">
<rect width="160" height="16" fill="white" transform="translate(93 33)"/>
</clipPath>
</defs>
</svg>
